<?xml version="1.0" encoding="iso-8859-1"?>
<!-- Generator: Adobe Illustrator 19.0.0, SVG Export Plug-In . SVG Version: 6.00 Build 0)  -->
<svg version="1.1" id="Layer_1" xmlns="http://www.w3.org/2000/svg" xmlns:xlink="http://www.w3.org/1999/xlink" x="0px" y="0px"
	 viewBox="0 0 460 460" style="enable-background:new 0 0 460 460;" xml:space="preserve">
<g id="XMLID_2_">
	<path id="XMLID_4_" style="fill:#487ED2;" d="M446.112,151.112C413.919,62.943,329.311,0,230,0C102.975,0,0,102.975,0,230
		c0,109.641,76.722,201.351,179.405,224.404C179.403,454.403,446.112,151.112,446.112,151.112z"/>
	<path id="XMLID_5_" style="fill:#1D54BD;" d="M446.112,151.112L395,100L65,340l114.403,114.403
		C195.685,458.059,212.615,460,230,460c127.025,0,230-102.975,230-230C460,202.286,455.096,175.717,446.112,151.112z"/>
	<polygon id="XMLID_6_" style="fill:#FFC85F;" points="65,100 85,140 230,130 240,115 230,100 	"/>
	<polygon id="XMLID_7_" style="fill:#FFC85F;" points="85,300 65,340 240,340 230,310 	"/>
	<polygon id="XMLID_8_" style="fill:#FFAE46;" points="95,310 65,340 65,100 95,130 105,220 	"/>
	<polygon id="XMLID_9_" style="fill:#FFAE46;" points="395,100 230,100 230,130 375,140 	"/>
	<polygon id="XMLID_10_" style="fill:#FFAE46;" points="375,300 230,310 230,340 395,340 	"/>
	<polygon id="XMLID_11_" style="fill:#FE843F;" points="395,340 365,310 355,220 365,130 395,100 	"/>
	<polygon id="XMLID_12_" style="fill:#1D54BD;" points="95,130 95,310 230,310 240,220 230,130 	"/>
	<rect id="XMLID_13_" x="230" y="130" style="fill:#12398F;" width="135" height="180"/>
	<rect id="XMLID_14_" x="260" y="194.395" style="fill:#FFFFFF;" width="50" height="15"/>
	<rect id="XMLID_15_" x="260" y="229.395" style="fill:#FFFFFF;" width="50" height="15"/>
	<polygon id="XMLID_16_" style="fill:#FFFFFF;" points="200,211.895 182.5,211.895 182.5,194.395 167.5,194.395 167.5,211.895 
		150,211.895 150,226.895 167.5,226.895 167.5,244.395 182.5,244.395 182.5,226.895 200,226.895 	"/>
	<polygon id="XMLID_17_" style="fill:#FE843F;" points="95,330 95,360 230,360 240,345 230,330 	"/>
	<rect id="XMLID_18_" x="230" y="330" style="fill:#FC5A37;" width="135" height="30"/>
	<rect id="XMLID_19_" x="265" y="290" style="fill:#FFF2D4;" width="80" height="40"/>
</g>
<g>
</g>
<g>
</g>
<g>
</g>
<g>
</g>
<g>
</g>
<g>
</g>
<g>
</g>
<g>
</g>
<g>
</g>
<g>
</g>
<g>
</g>
<g>
</g>
<g>
</g>
<g>
</g>
<g>
</g>
</svg>
